<svg width="130" height="130" viewBox="0 0 130 130" fill="none" xmlns="http://www.w3.org/2000/svg">
<path d="M56.7062 104.481C57.2479 103.856 57.597 103.434 57.9701 103.049C61.3766 99.4018 64.9757 95.9231 68.1414 92.0833C71.4757 88.0389 74.9183 83.9222 77.3738 79.3361C82.4294 69.9111 80.034 58.8611 72.0414 52.4935C67.6359 48.9907 62.7368 47.462 57.5127 47.3296C57.5127 47.3176 57.5248 47.3176 57.5248 47.3055L4.20068 47.0889V60.2935H30.8025C31.8979 60.2935 32.5961 61.4611 32.1146 62.4481C23.6044 79.6972 15.2146 96.7416 6.7405 113.931C6.21087 115.014 6.99328 116.278 8.18494 116.278C12.1451 116.266 15.9248 116.254 19.6924 116.314C20.7636 116.326 20.9803 115.676 21.3294 114.954C28.5757 99.787 35.8461 84.6444 43.0803 69.4778L43.1886 69.4055C46.7636 62.424 50.3507 60.5824 55.9238 60.0889C60.4738 59.9083 64.1572 62.6768 65.2285 67.1787C66.0229 70.5129 65.6257 73.8111 63.8442 76.7C61.9424 79.7694 59.884 82.7907 57.4766 85.475C49.5322 94.3342 41.4192 103.037 33.2942 111.752C32.0183 113.124 31.4285 114.484 31.9701 116.35C48.5331 116.35 65.0961 116.35 81.6711 116.35C81.6711 112.366 81.6711 108.502 81.6711 104.493C73.3655 104.481 65.1803 104.481 56.7062 104.481Z" fill="#014751"/>
<path d="M71.3314 38.2056C79.1193 38.7834 86.2814 44.8741 87.1841 54.0704C87.2925 55.1898 87.6897 55.4547 88.7249 55.4667C90.6508 55.4787 91.1082 55.4787 92.7332 55.4547V36.9417H111.126C111.15 36.8213 111.138 36.713 111.138 36.5806C111.15 34.9556 111.09 34.7269 111.126 32.163C111.138 30.4417 107.912 31.2 106.419 30.8871C99.173 29.3945 94.4425 23.2435 93.9008 15.6963C93.8045 14.3121 93.5036 14.3722 92.4443 14.3482C90.4101 14.3121 89.4832 14.3361 88.5323 14.3482V32.8732L69.9351 32.8491C69.9351 33.9445 69.9471 34.0648 69.9591 35.076C69.9591 35.6658 69.9471 36.2435 69.9471 36.8213C69.9591 37.8324 70.5489 38.1454 71.3314 38.2056Z" fill="#02E100"/>
<path d="M104.421 43.0686C105.938 43.0686 107.057 43.4899 107.816 44.2964C108.586 45.1149 108.959 46.126 108.959 47.3056C108.959 48.5093 108.562 49.4964 107.779 50.2908C106.997 51.0732 105.817 51.4705 104.229 51.4705H102.242V55.9001H99.6665V43.0686H104.421ZM104.313 49.1593C105.637 49.1593 106.323 48.3288 106.323 47.2816C106.323 46.2584 105.613 45.4519 104.445 45.4519H102.242V49.1473H104.313V49.1593Z" fill="#014751"/>
<path d="M110.777 55.9121V43.0686H112.474L117.518 50.351L122.501 43.0686H124.234V55.9121H121.658V48.6297L117.927 53.9982H117.036L113.305 48.6297V55.9121H110.777Z" fill="#014751"/>
</svg>
